<?xml version="1.0" encoding="utf-8"?>
<!-- Generator: Adobe Illustrator 16.0.0, SVG Export Plug-In . SVG Version: 6.00 Build 0)  -->
<!DOCTYPE svg PUBLIC "-//W3C//DTD SVG 1.1//EN" "http://www.w3.org/Graphics/SVG/1.1/DTD/svg11.dtd">
<svg version="1.1" id="Layer_1" xmlns="http://www.w3.org/2000/svg" xmlns:xlink="http://www.w3.org/1999/xlink" x="0px" y="0px"
	 viewBox="74.264 13.034 324.143 76.85" enable-background="new 74.264 13.034 324.143 76.85"
	 xml:space="preserve">
<g>
	<g>
		<path fill="#FFFFFF" d="M86.012,53.254c0,2.885,0,5.258,0.15,6.52c0.09,0.872,0.271,1.532,1.172,1.653
			c0.421,0.06,1.082,0.12,1.352,0.12c0.18,0,0.24,0.09,0.24,0.18c0,0.15-0.15,0.24-0.48,0.24c-1.652,0-3.545-0.09-3.696-0.09
			c-0.15,0-2.043,0.09-2.944,0.09c-0.331,0-0.48-0.06-0.48-0.24c0-0.09,0.06-0.18,0.24-0.18c0.271,0,0.631-0.061,0.901-0.12
			c0.601-0.121,0.751-0.781,0.871-1.653c0.15-1.262,0.15-3.635,0.15-6.52V40.545l-4.447,0.06c-1.862,0.03-2.583,0.24-3.064,0.961
			c-0.331,0.511-0.42,0.721-0.511,0.931c-0.09,0.241-0.18,0.301-0.3,0.301c-0.09,0-0.15-0.09-0.15-0.271
			c0-0.3,0.601-2.884,0.661-3.125c0.06-0.181,0.18-0.571,0.3-0.571c0.21,0,0.511,0.3,1.322,0.36c0.871,0.09,2.013,0.15,2.374,0.15
			h11.267c0.961,0,1.652-0.061,2.133-0.15c0.451-0.06,0.721-0.15,0.841-0.15c0.15,0,0.15,0.18,0.15,0.361
			c0,0.901-0.09,2.974-0.09,3.305c0,0.271-0.09,0.391-0.21,0.391c-0.15,0-0.21-0.09-0.24-0.511l-0.03-0.331
			c-0.09-0.901-0.811-1.592-3.695-1.652l-3.786-0.06V53.254z"/>
		<path fill="#FFFFFF" d="M115.219,54.546c0,2.464,0.03,4.477,0.15,5.528c0.09,0.751,0.15,1.231,0.961,1.353
			c0.361,0.06,0.961,0.12,1.172,0.12c0.18,0,0.24,0.12,0.24,0.21c0,0.12-0.15,0.21-0.451,0.21c-1.442,0-3.125-0.09-3.275-0.09
			c-0.12,0-1.833,0.09-2.614,0.09c-0.3,0-0.42-0.06-0.42-0.21c0-0.09,0.06-0.21,0.21-0.21c0.241,0,0.541-0.061,0.781-0.12
			c0.541-0.121,0.631-0.632,0.721-1.383c0.12-1.051,0.12-2.975,0.12-5.438v-2.554c0-0.12-0.06-0.15-0.15-0.15h-11.026
			c-0.09,0-0.15,0.03-0.15,0.15v2.554c0,2.463,0,4.416,0.12,5.468c0.09,0.751,0.18,1.231,0.961,1.353
			c0.391,0.06,0.961,0.12,1.202,0.12c0.15,0,0.21,0.12,0.21,0.21c0,0.12-0.12,0.21-0.421,0.21c-1.472,0-3.154-0.09-3.274-0.09
			c-0.15,0-1.833,0.09-2.644,0.09c-0.271,0-0.421-0.06-0.421-0.21c0-0.09,0.06-0.21,0.21-0.21c0.24,0,0.571-0.061,0.811-0.12
			c0.511-0.121,0.571-0.602,0.691-1.353c0.15-1.052,0.15-3.064,0.15-5.528V50.04c0-3.966,0-4.687-0.06-5.499
			c-0.06-0.871-0.21-1.292-1.082-1.412c-0.21-0.03-0.661-0.06-0.901-0.06c-0.09,0-0.21-0.12-0.21-0.21c0-0.15,0.12-0.21,0.42-0.21
			c1.202,0,2.884,0.06,3.035,0.06c0.12,0,1.802-0.06,2.614-0.06c0.3,0,0.42,0.06,0.42,0.21c0,0.09-0.12,0.21-0.21,0.21
			c-0.181,0-0.361,0-0.661,0.06c-0.721,0.15-0.872,0.511-0.932,1.412c-0.03,0.812-0.03,1.593-0.03,5.559v0.541
			c0,0.15,0.06,0.15,0.15,0.15h11.026c0.09,0,0.15,0,0.15-0.15V50.1c0-3.966-0.03-4.747-0.06-5.559
			c-0.06-0.871-0.18-1.292-1.052-1.412c-0.21-0.03-0.661-0.06-0.901-0.06c-0.121,0-0.21-0.12-0.21-0.21c0-0.15,0.12-0.21,0.42-0.21
			c1.172,0,2.884,0.06,3.004,0.06c0.15,0,1.833-0.06,2.614-0.06c0.3,0,0.451,0.06,0.451,0.21c0,0.09-0.121,0.21-0.241,0.21
			c-0.18,0-0.331,0-0.661,0.06c-0.691,0.15-0.841,0.511-0.901,1.412c-0.06,0.812-0.06,1.533-0.06,5.499V54.546z"/>
		<path fill="#FFFFFF" d="M123.937,50.04c0-3.966,0-4.687-0.06-5.499c-0.06-0.871-0.21-1.292-1.082-1.412
			c-0.21-0.03-0.661-0.06-0.901-0.06c-0.09,0-0.21-0.12-0.21-0.21c0-0.15,0.12-0.21,0.42-0.21c1.202,0,2.914,0.06,3.064,0.06
			c0.18,0,5.708,0.03,6.31,0c0.511-0.03,0.991-0.12,1.202-0.15c0.12-0.03,0.24-0.12,0.36-0.12c0.09,0,0.12,0.12,0.12,0.241
			c0,0.18-0.15,0.48-0.21,1.202c-0.03,0.24-0.09,1.382-0.15,1.683c-0.03,0.12-0.12,0.27-0.24,0.27c-0.15,0-0.21-0.12-0.21-0.331
			c0-0.18-0.03-0.601-0.15-0.901c-0.18-0.421-0.451-0.601-1.893-0.781c-0.451-0.06-3.515-0.09-3.816-0.09
			c-0.12,0-0.15,0.09-0.15,0.271v6.94c0,0.18,0,0.27,0.15,0.27c0.331,0,3.816,0,4.417-0.06c0.631-0.061,1.021-0.091,1.292-0.361
			c0.181-0.18,0.301-0.331,0.391-0.331c0.09,0,0.15,0.06,0.15,0.21c0,0.15-0.15,0.571-0.21,1.412c-0.06,0.511-0.12,1.473-0.12,1.653
			c0,0.21-0.06,0.48-0.24,0.48c-0.12,0-0.18-0.091-0.18-0.24c0-0.24,0-0.511-0.12-0.842c-0.09-0.36-0.331-0.661-1.352-0.781
			c-0.721-0.09-3.545-0.12-3.996-0.12c-0.15,0-0.18,0.091-0.18,0.181v2.133c0,0.871-0.03,3.846,0,4.356
			c0.06,1.713,0.541,2.043,3.155,2.043c0.691,0,1.953,0,2.644-0.271c0.691-0.3,1.052-0.751,1.202-1.772
			c0.06-0.3,0.12-0.391,0.27-0.391c0.15,0,0.181,0.211,0.181,0.391c0,0.181-0.21,1.923-0.361,2.464
			c-0.18,0.661-0.451,0.661-1.472,0.661c-1.983,0-3.515-0.061-4.597-0.09c-1.112-0.061-1.803-0.061-2.193-0.061
			c-0.06,0-0.571,0-1.142,0.03c-0.511,0.03-1.112,0.06-1.532,0.06c-0.271,0-0.421-0.06-0.421-0.21c0-0.09,0.06-0.21,0.21-0.21
			c0.24,0,0.571-0.091,0.811-0.12c0.511-0.091,0.571-0.602,0.691-1.353c0.15-1.052,0.15-3.064,0.15-5.528V50.04z"/>
		<path fill="#FFFFFF" d="M155.819,52.834c-0.03,3.004,0,5.588,0.15,6.91c0.12,0.931,0.241,1.382,1.202,1.592
			c0.45,0.091,1.712,0.181,1.983,0.181c0.12,0,0.27,0.12,0.27,0.24c0,0.15-0.15,0.21-0.511,0.21c-2.253,0-4.176-0.09-4.326-0.09
			s-2.674,0.09-4.597,0.09c-0.331,0-0.511-0.06-0.511-0.21c0-0.12,0.12-0.24,0.24-0.24c0.36,0,1.833-0.09,2.403-0.211
			c0.992-0.18,1.202-0.631,1.262-1.562c0.09-1.322,0.09-3.906,0.09-6.91v-5.258c0-1.623,0-2.914,0-4.567
			c0-0.601-0.06-0.931-0.541-0.931c-0.571,0-2.674,1.082-3.425,1.442c-0.15,0.09-0.24,0.121-0.36,0.121
			c-0.09,0-0.21-0.15-0.21-0.271c0-0.09,0.09-0.21,0.21-0.301l5.798-3.875c0.271-0.18,0.511-0.36,0.721-0.36
			c0.24,0,0.331,0.33,0.331,0.631c0,0.24-0.12,3.215-0.15,7.812L155.819,52.834z"/>
		<path fill="#FFFFFF" d="M175.261,53.494h2.283c0.812,0,1.112-0.33,1.232-0.33c0.15,0,0.15,0.21,0.15,0.36s-0.15,0.842-0.271,1.202
			c-0.15,0.3-0.271,0.391-0.631,0.391h-2.764c0,0.991-0.06,3.305,0.06,4.627c0.09,0.901,0.331,1.412,1.292,1.652
			c0.42,0.09,1.021,0.12,1.322,0.12c0.15,0,0.271,0.12,0.271,0.24c0,0.15-0.15,0.21-0.48,0.21c-1.653,0-3.576-0.09-3.786-0.09
			c-0.21,0-1.833,0.09-3.485,0.09c-0.331,0-0.481-0.06-0.481-0.21c0-0.12,0.09-0.24,0.241-0.24c0.271,0,0.931-0.03,1.412-0.09
			c0.991-0.15,1.202-0.781,1.292-1.683c0.12-1.322,0.06-3.636,0.06-4.627h-9.164c-0.361,0-0.631-0.091-0.631-0.36
			c0-0.241,0.15-0.481,0.271-0.632c0.18-0.21,9.945-13.43,10.906-14.751c0.24-0.331,0.421-0.541,0.631-0.541
			c0.21,0,0.301,0.21,0.301,0.511c0,0.451-0.03,2.854-0.03,4.506V53.494z M172.978,42.859h-0.06
			c-0.451,0.781-7.061,9.884-7.631,10.635h7.691V42.859z"/>
		<path fill="#FFFFFF" d="M184.782,44.459c0,1.149,0,2.087,0.056,2.578c0.042,0.35,0.098,0.574,0.477,0.63
			c0.168,0.028,0.448,0.056,0.56,0.056c0.084,0,0.098,0.056,0.098,0.098c0,0.056-0.056,0.098-0.196,0.098
			c-0.672,0-1.457-0.042-1.527-0.042c-0.056,0-0.91,0.042-1.274,0.042c-0.14,0-0.196-0.028-0.196-0.098
			c0-0.042,0.028-0.084,0.098-0.084c0.112,0,0.252-0.028,0.364-0.056c0.252-0.056,0.322-0.294,0.364-0.644
			c0.056-0.49,0.056-1.429,0.056-2.578v-5l-1.779,0.028c-0.771,0.014-1.064,0.098-1.247,0.378c-0.14,0.21-0.154,0.294-0.196,0.378
			c-0.028,0.098-0.07,0.112-0.126,0.112c-0.028,0-0.084-0.028-0.084-0.098c0-0.126,0.238-1.19,0.266-1.289
			c0.014-0.07,0.084-0.224,0.126-0.224c0.084,0,0.21,0.098,0.546,0.14c0.35,0.042,0.827,0.056,0.967,0.056h4.65
			c0.406,0,0.687-0.028,0.882-0.056c0.182-0.028,0.294-0.056,0.35-0.056c0.056,0,0.056,0.07,0.056,0.14
			c0,0.364-0.042,1.219-0.042,1.358c0,0.098-0.056,0.154-0.112,0.154c-0.056,0-0.084-0.042-0.098-0.21l-0.014-0.126
			c-0.042-0.364-0.308-0.63-1.485-0.658l-1.541-0.028V44.459z"/>
		<path fill="#FFFFFF" d="M198.154,44.459c0,1.149,0.014,2.087,0.07,2.578c0.042,0.35,0.07,0.574,0.448,0.63
			c0.168,0.028,0.448,0.056,0.546,0.056c0.084,0,0.112,0.056,0.112,0.098c0,0.056-0.07,0.098-0.21,0.098
			c-0.672,0-1.457-0.042-1.527-0.042c-0.056,0-0.854,0.042-1.219,0.042c-0.14,0-0.196-0.028-0.196-0.098
			c0-0.042,0.028-0.098,0.098-0.098c0.112,0,0.252-0.028,0.364-0.056c0.252-0.056,0.294-0.294,0.336-0.645
			c0.056-0.49,0.056-1.387,0.056-2.535v-1.191c0-0.056-0.028-0.07-0.07-0.07h-5.141c-0.042,0-0.07,0.014-0.07,0.07v1.191
			c0,1.148,0,2.059,0.056,2.549c0.042,0.35,0.084,0.574,0.448,0.63c0.182,0.028,0.448,0.056,0.561,0.056
			c0.07,0,0.098,0.056,0.098,0.098c0,0.056-0.056,0.098-0.196,0.098c-0.687,0-1.471-0.042-1.527-0.042
			c-0.07,0-0.854,0.042-1.232,0.042c-0.126,0-0.196-0.028-0.196-0.098c0-0.042,0.028-0.098,0.098-0.098
			c0.112,0,0.266-0.028,0.378-0.056c0.238-0.056,0.266-0.28,0.322-0.63c0.07-0.49,0.07-1.429,0.07-2.578v-2.101
			c0-1.849,0-2.185-0.028-2.563c-0.028-0.406-0.098-0.602-0.504-0.658c-0.098-0.014-0.308-0.028-0.42-0.028
			c-0.042,0-0.098-0.056-0.098-0.098c0-0.07,0.056-0.098,0.196-0.098c0.56,0,1.345,0.028,1.415,0.028
			c0.056,0,0.84-0.028,1.219-0.028c0.14,0,0.196,0.028,0.196,0.098c0,0.042-0.056,0.098-0.098,0.098c-0.084,0-0.168,0-0.308,0.028
			c-0.336,0.07-0.406,0.238-0.435,0.658c-0.014,0.378-0.014,0.743-0.014,2.591v0.252c0,0.07,0.028,0.07,0.07,0.07h5.141
			c0.042,0,0.07,0,0.07-0.07v-0.252c0-1.849-0.014-2.213-0.028-2.591c-0.028-0.406-0.084-0.602-0.49-0.658
			c-0.098-0.014-0.308-0.028-0.42-0.028c-0.056,0-0.098-0.056-0.098-0.098c0-0.07,0.056-0.098,0.196-0.098
			c0.546,0,1.345,0.028,1.4,0.028c0.07,0,0.854-0.028,1.219-0.028c0.14,0,0.21,0.028,0.21,0.098c0,0.042-0.056,0.098-0.112,0.098
			c-0.084,0-0.154,0-0.308,0.028c-0.322,0.07-0.393,0.238-0.42,0.658c-0.028,0.378-0.028,0.714-0.028,2.563V44.459z"/>
		<path fill="#FFFFFF" d="M215.433,47.966c0-4.687,0-5.528-0.06-6.49c-0.061-1.021-0.301-1.502-1.292-1.712
			c-0.241-0.06-0.751-0.09-1.021-0.09c-0.121,0-0.241-0.06-0.241-0.18c0-0.18,0.15-0.24,0.481-0.24c1.352,0,3.245,0.09,3.395,0.09
			c0.36,0,2.253-0.09,4.056-0.09c2.974,0,8.472-0.271,12.048,3.425c1.502,1.562,2.914,4.056,2.914,7.631
			c0,3.786-1.562,6.7-3.244,8.473c-1.293,1.353-3.997,3.455-9.104,3.455c-1.292,0-2.884-0.09-4.176-0.18
			c-1.322-0.091-2.343-0.181-2.494-0.181c-0.06,0-0.571,0-1.202,0.03c-0.601,0-1.292,0.06-1.743,0.06
			c-0.331,0-0.481-0.06-0.481-0.24c0-0.09,0.06-0.18,0.241-0.18c0.27,0,0.631-0.061,0.901-0.12c0.601-0.121,0.751-0.781,0.872-1.653
			c0.15-1.262,0.15-3.635,0.15-6.52V47.966z M217.957,51.211c0,3.185,0.03,5.949,0.06,6.52c0.03,0.751,0.09,1.953,0.331,2.284
			c0.391,0.57,1.562,1.201,5.107,1.201c2.794,0,5.378-1.021,7.151-2.794c1.562-1.532,2.403-4.417,2.403-7.181
			c0-3.816-1.652-6.279-2.884-7.571c-2.824-2.975-6.249-3.395-9.824-3.395c-0.601,0-1.713,0.09-1.953,0.21
			c-0.271,0.12-0.36,0.271-0.36,0.601c-0.03,1.021-0.03,4.086-0.03,6.4V51.211z"/>
		<path fill="#FFFFFF" d="M245.994,43.159c0.33-0.841,0.45-0.991,0.631-0.991c0.27,0,0.359,0.36,0.631,0.931
			c0.48,1.082,4.717,11.627,6.339,15.503c0.962,2.283,1.683,2.613,2.253,2.794c0.391,0.12,0.781,0.15,1.052,0.15
			c0.15,0,0.331,0.06,0.331,0.21s-0.301,0.21-0.602,0.21c-0.391,0-2.344,0-4.176-0.06c-0.511-0.03-0.932-0.03-0.932-0.181
			c0-0.12,0.061-0.12,0.18-0.18c0.15-0.061,0.422-0.271,0.241-0.691l-2.374-5.858c-0.06-0.12-0.09-0.15-0.24-0.15h-6.099
			c-0.12,0-0.21,0.06-0.271,0.21l-1.502,4.086c-0.24,0.631-0.391,1.262-0.391,1.713c0,0.511,0.45,0.691,0.9,0.691h0.241
			c0.21,0,0.271,0.09,0.271,0.21c0,0.15-0.15,0.21-0.391,0.21c-0.631,0-2.073-0.09-2.374-0.09c-0.271,0-1.593,0.09-2.674,0.09
			c-0.331,0-0.511-0.06-0.511-0.21c0-0.12,0.12-0.21,0.24-0.21c0.181,0,0.571-0.03,0.781-0.061c1.202-0.15,1.713-1.052,2.224-2.344
			L245.994,43.159z M248.938,53.795c0.121,0,0.121-0.06,0.09-0.181l-2.613-7c-0.15-0.391-0.301-0.391-0.451,0l-2.463,7
			c-0.03,0.121,0,0.181,0.09,0.181H248.938z"/>
		<path fill="#FFFFFF" d="M263.123,54.606c0,3.755,0.06,5.287,0.54,5.738c0.421,0.421,1.442,0.601,3.516,0.601
			c1.382,0,2.554-0.03,3.185-0.781c0.33-0.391,0.541-0.931,0.631-1.441c0.03-0.181,0.12-0.331,0.271-0.331
			c0.12,0,0.181,0.12,0.181,0.391s-0.181,1.803-0.391,2.554c-0.181,0.602-0.271,0.691-1.684,0.691c-1.893,0-3.364-0.03-4.596-0.09
			c-1.202-0.03-2.104-0.061-2.885-0.061c-0.12,0-0.57,0-1.082,0.03c-0.541,0.03-1.111,0.06-1.531,0.06
			c-0.271,0-0.422-0.06-0.422-0.21c0-0.09,0.061-0.21,0.211-0.21c0.24,0,0.57-0.061,0.811-0.12c0.512-0.121,0.572-0.602,0.691-1.353
			c0.15-1.052,0.15-3.064,0.15-5.528V50.04c0-3.966,0-4.687-0.061-5.499c-0.06-0.871-0.209-1.292-1.081-1.412
			c-0.21-0.03-0.661-0.06-0.901-0.06c-0.09,0-0.21-0.12-0.21-0.21c0-0.15,0.12-0.21,0.421-0.21c1.201,0,2.854,0.06,3.004,0.06
			c0.12,0,2.104-0.06,2.914-0.06c0.271,0,0.421,0.06,0.421,0.21c0,0.09-0.12,0.18-0.21,0.18c-0.181,0-0.571,0.03-0.871,0.06
			c-0.781,0.15-0.932,0.541-0.992,1.442c-0.029,0.812-0.029,1.533-0.029,5.499V54.606z"/>
		<path fill="#FFFFFF" d="M281.092,43.159c0.33-0.841,0.45-0.991,0.631-0.991c0.27,0,0.36,0.36,0.631,0.931
			c0.48,1.082,4.717,11.627,6.34,15.503c0.961,2.283,1.682,2.613,2.253,2.794c0.391,0.12,0.781,0.15,1.052,0.15
			c0.15,0,0.33,0.06,0.33,0.21s-0.301,0.21-0.601,0.21c-0.391,0-2.344,0-4.177-0.06c-0.51-0.03-0.932-0.03-0.932-0.181
			c0-0.12,0.061-0.12,0.181-0.18c0.15-0.061,0.421-0.271,0.241-0.691l-2.374-5.858c-0.06-0.12-0.091-0.15-0.24-0.15h-6.099
			c-0.121,0-0.211,0.06-0.271,0.21l-1.502,4.086c-0.24,0.631-0.391,1.262-0.391,1.713c0,0.511,0.451,0.691,0.901,0.691h0.241
			c0.209,0,0.27,0.09,0.27,0.21c0,0.15-0.15,0.21-0.391,0.21c-0.631,0-2.072-0.09-2.373-0.09c-0.271,0-1.593,0.09-2.674,0.09
			c-0.331,0-0.512-0.06-0.512-0.21c0-0.12,0.121-0.21,0.24-0.21c0.182,0,0.572-0.03,0.781-0.061c1.202-0.15,1.713-1.052,2.225-2.344
			L281.092,43.159z M284.036,53.795c0.12,0,0.12-0.06,0.09-0.181l-2.614-7c-0.15-0.391-0.3-0.391-0.45,0l-2.464,7
			c-0.029,0.121,0,0.181,0.09,0.181H284.036z"/>
		<path fill="#FFFFFF" d="M298.221,54.546c0,2.464,0,4.477,0.119,5.528c0.091,0.751,0.181,1.231,0.962,1.353
			c0.391,0.06,0.962,0.12,1.202,0.12c0.15,0,0.21,0.12,0.21,0.21c0,0.12-0.12,0.21-0.421,0.21c-1.473,0-3.185-0.09-3.305-0.09
			c-0.15,0-1.803,0.09-2.613,0.09c-0.271,0-0.422-0.06-0.422-0.21c0-0.09,0.061-0.21,0.211-0.21c0.24,0,0.57-0.061,0.811-0.12
			c0.512-0.121,0.602-0.602,0.691-1.353c0.121-1.052,0.15-3.064,0.15-5.528V50.04c0-3.966,0-4.687-0.061-5.499
			c-0.06-0.871-0.27-1.262-0.841-1.382c-0.3-0.06-0.631-0.09-0.812-0.09c-0.119,0-0.21-0.12-0.21-0.21c0-0.15,0.12-0.21,0.421-0.21
			c0.871,0,2.523,0.06,2.674,0.06c0.12,0,1.832-0.06,2.645-0.06c0.3,0,0.42,0.06,0.42,0.21c0,0.09-0.12,0.21-0.21,0.21
			c-0.181,0-0.36,0-0.661,0.06c-0.721,0.15-0.871,0.511-0.932,1.412c-0.029,0.812-0.029,1.533-0.029,5.499V54.546z"/>
		<path fill="#FFFFFF" d="M320.486,53.314c0,4.416,0.121,6.339,0.662,6.88c0.48,0.48,1.262,0.691,3.605,0.691
			c1.592,0,2.914-0.03,3.635-0.901c0.391-0.48,0.691-1.232,0.781-1.803c0.029-0.24,0.09-0.391,0.271-0.391
			c0.149,0,0.181,0.12,0.181,0.45c0,0.331-0.211,2.134-0.451,3.005c-0.211,0.691-0.301,0.812-1.893,0.812
			c-2.164,0-3.727-0.061-4.988-0.091c-1.262-0.06-2.193-0.09-3.064-0.09c-0.119,0-0.631,0.03-1.231,0.03
			c-0.601,0.03-1.262,0.06-1.712,0.06c-0.331,0-0.481-0.06-0.481-0.24c0-0.09,0.06-0.18,0.241-0.18c0.27,0,0.631-0.061,0.9-0.12
			c0.602-0.121,0.752-0.781,0.871-1.653c0.15-1.262,0.15-3.635,0.15-6.52v-5.288c0-4.687,0-5.528-0.06-6.49
			c-0.061-1.021-0.301-1.502-1.292-1.712c-0.24-0.06-0.752-0.09-1.021-0.09c-0.121,0-0.24-0.06-0.24-0.18
			c0-0.18,0.15-0.24,0.48-0.24c1.352,0,3.244,0.09,3.395,0.09s2.344-0.09,3.245-0.09c0.331,0,0.481,0.06,0.481,0.24
			c0,0.12-0.121,0.18-0.241,0.18c-0.21,0-0.631,0.03-0.991,0.09c-0.871,0.15-1.111,0.661-1.172,1.712
			c-0.061,0.961-0.061,1.803-0.061,6.49V53.314z"/>
		<path fill="#FFFFFF" d="M339.418,43.159c0.33-0.841,0.451-0.991,0.631-0.991c0.271,0,0.361,0.36,0.631,0.931
			c0.48,1.082,4.717,11.627,6.34,15.503c0.961,2.283,1.683,2.613,2.254,2.794c0.391,0.12,0.781,0.15,1.051,0.15
			c0.15,0,0.33,0.06,0.33,0.21s-0.3,0.21-0.6,0.21c-0.391,0-2.344,0-4.177-0.06c-0.511-0.03-0.932-0.03-0.932-0.181
			c0-0.12,0.06-0.12,0.181-0.18c0.15-0.061,0.42-0.271,0.24-0.691l-2.373-5.858c-0.061-0.12-0.091-0.15-0.241-0.15h-6.099
			c-0.12,0-0.211,0.06-0.271,0.21l-1.503,4.086c-0.24,0.631-0.391,1.262-0.391,1.713c0,0.511,0.451,0.691,0.902,0.691h0.24
			c0.21,0,0.27,0.09,0.27,0.21c0,0.15-0.149,0.21-0.391,0.21c-0.631,0-2.072-0.09-2.373-0.09c-0.27,0-1.592,0.09-2.674,0.09
			c-0.33,0-0.511-0.06-0.511-0.21c0-0.12,0.12-0.21,0.24-0.21c0.181,0,0.571-0.03,0.781-0.061c1.202-0.15,1.713-1.052,2.224-2.344
			L339.418,43.159z M342.363,53.795c0.119,0,0.119-0.06,0.09-0.181l-2.614-7c-0.15-0.391-0.3-0.391-0.45,0l-2.465,7
			c-0.029,0.121,0,0.181,0.091,0.181H342.363z"/>
		<path fill="#FFFFFF" d="M374.633,58.692c0.091,0.901,0.271,2.283,1.353,2.644c0.751,0.24,1.442,0.24,1.713,0.24
			c0.12,0,0.21,0.061,0.21,0.181c0,0.15-0.24,0.24-0.541,0.24c-0.601,0-3.545-0.03-4.506-0.12c-0.631-0.061-0.752-0.15-0.752-0.271
			c0-0.09,0.061-0.18,0.181-0.21c0.15-0.03,0.181-0.421,0.12-0.901l-1.262-12.979h-0.061l-6.369,13.039
			c-0.541,1.112-0.691,1.353-0.932,1.353s-0.391-0.24-0.9-1.172c-0.691-1.262-2.434-4.537-3.096-5.919
			c-0.781-1.622-2.914-5.919-3.364-6.97h-0.12l-1.021,11.537c-0.03,0.391-0.03,0.872-0.03,1.292c0,0.391,0.24,0.631,0.631,0.722
			c0.45,0.12,0.841,0.15,1.021,0.15c0.091,0,0.21,0.09,0.21,0.18c0,0.181-0.18,0.24-0.48,0.24c-0.991,0-2.254-0.09-2.463-0.09
			c-0.241,0-1.503,0.09-2.225,0.09c-0.27,0-0.45-0.06-0.45-0.24c0-0.09,0.12-0.18,0.271-0.18c0.211,0,0.391-0.03,0.781-0.091
			c0.871-0.15,0.901-1.081,1.021-2.043l1.923-16.674c0.03-0.271,0.15-0.451,0.3-0.451c0.182,0,0.391,0.09,0.541,0.391l7.992,15.863
			l7.691-15.833c0.12-0.24,0.24-0.42,0.421-0.42s0.33,0.21,0.391,0.691L374.633,58.692z"/>
		<path fill="#FFFFFF" d="M387.167,43.159c0.331-0.841,0.451-0.991,0.631-0.991c0.271,0,0.361,0.36,0.631,0.931
			c0.481,1.082,4.718,11.627,6.34,15.503c0.961,2.283,1.683,2.613,2.253,2.794c0.391,0.12,0.781,0.15,1.052,0.15
			c0.15,0,0.331,0.06,0.331,0.21s-0.301,0.21-0.602,0.21c-0.391,0-2.343,0-4.176-0.06c-0.511-0.03-0.932-0.03-0.932-0.181
			c0-0.12,0.061-0.12,0.181-0.18c0.15-0.061,0.42-0.271,0.24-0.691l-2.374-5.858c-0.06-0.12-0.09-0.15-0.24-0.15h-6.099
			c-0.12,0-0.21,0.06-0.271,0.21l-1.502,4.086c-0.24,0.631-0.391,1.262-0.391,1.713c0,0.511,0.45,0.691,0.9,0.691h0.241
			c0.21,0,0.271,0.09,0.271,0.21c0,0.15-0.15,0.21-0.391,0.21c-0.631,0-2.073-0.09-2.374-0.09c-0.271,0-1.593,0.09-2.674,0.09
			c-0.331,0-0.511-0.06-0.511-0.21c0-0.12,0.12-0.21,0.24-0.21c0.181,0,0.571-0.03,0.781-0.061c1.202-0.15,1.713-1.052,2.224-2.344
			L387.167,43.159z M390.111,53.795c0.12,0,0.12-0.06,0.091-0.181l-2.614-7c-0.15-0.391-0.301-0.391-0.451,0l-2.463,7
			c-0.03,0.121,0,0.181,0.09,0.181H390.111z"/>
	</g>
	<g>
		<path fill="#FFFFFF" d="M174.204,25.788c0,2.082,0,3.794,0.108,4.706c0.065,0.628,0.195,1.105,0.846,1.192
			c0.303,0.043,0.78,0.087,0.976,0.087c0.13,0,0.173,0.065,0.173,0.13c0,0.108-0.108,0.173-0.347,0.173
			c-1.193,0-2.559-0.065-2.667-0.065s-1.475,0.065-2.125,0.065c-0.239,0-0.347-0.043-0.347-0.173c0-0.065,0.043-0.13,0.174-0.13
			c0.195,0,0.455-0.043,0.65-0.087c0.434-0.087,0.542-0.564,0.629-1.192c0.108-0.911,0.108-2.624,0.108-4.706v-2.276
			c0-0.087-0.065-0.13-0.13-0.13h-9.193c-0.065,0-0.13,0.022-0.13,0.13v2.276c0,2.082,0,3.794,0.108,4.706
			c0.065,0.628,0.195,1.105,0.846,1.192c0.304,0.043,0.781,0.087,0.976,0.087c0.13,0,0.173,0.065,0.173,0.13
			c0,0.108-0.108,0.173-0.347,0.173c-1.192,0-2.559-0.065-2.667-0.065s-1.474,0.065-2.125,0.065c-0.239,0-0.347-0.043-0.347-0.173
			c0-0.065,0.043-0.13,0.173-0.13c0.195,0,0.456-0.043,0.65-0.087c0.434-0.087,0.542-0.564,0.629-1.192
			c0.108-0.911,0.108-2.624,0.108-4.706v-3.816c0-3.382,0-3.99-0.043-4.684c-0.043-0.737-0.217-1.084-0.933-1.236
			c-0.173-0.043-0.542-0.065-0.737-0.065c-0.086,0-0.173-0.043-0.173-0.13c0-0.13,0.108-0.173,0.347-0.173
			c0.976,0,2.342,0.065,2.45,0.065s1.475-0.065,2.125-0.065c0.239,0,0.347,0.043,0.347,0.173c0,0.087-0.087,0.13-0.174,0.13
			c-0.151,0-0.282,0.021-0.542,0.065c-0.585,0.108-0.759,0.477-0.802,1.236c-0.043,0.694-0.043,1.301-0.043,4.684v0.455
			c0,0.108,0.065,0.13,0.13,0.13h9.193c0.065,0,0.13-0.022,0.13-0.13v-0.455c0-3.382,0-3.99-0.043-4.684
			c-0.043-0.737-0.217-1.084-0.933-1.236c-0.173-0.043-0.542-0.065-0.737-0.065c-0.086,0-0.173-0.043-0.173-0.13
			c0-0.13,0.108-0.173,0.347-0.173c0.976,0,2.342,0.065,2.45,0.065s1.474-0.065,2.125-0.065c0.239,0,0.347,0.043,0.347,0.173
			c0,0.087-0.087,0.13-0.173,0.13c-0.152,0-0.282,0.021-0.542,0.065c-0.585,0.108-0.759,0.477-0.803,1.236
			c-0.043,0.694-0.043,1.301-0.043,4.684V25.788z"/>
		<path fill="#FFFFFF" d="M183.164,26.721c0,1.778,0,3.23,0.087,3.99c0.065,0.542,0.13,0.889,0.694,0.976
			c0.282,0.043,0.694,0.087,0.867,0.087c0.108,0,0.152,0.086,0.152,0.151c0,0.087-0.086,0.152-0.304,0.152
			c-1.062,0-2.298-0.065-2.385-0.065c-0.108,0-1.301,0.065-1.887,0.065c-0.195,0-0.303-0.043-0.303-0.152
			c0-0.065,0.043-0.151,0.152-0.151c0.173,0,0.412-0.043,0.585-0.087c0.369-0.087,0.434-0.434,0.499-0.976
			c0.087-0.759,0.108-2.212,0.108-3.99v-3.252c0-2.862,0-3.382-0.043-3.968c-0.043-0.629-0.195-0.911-0.607-0.998
			c-0.217-0.043-0.456-0.065-0.585-0.065c-0.087,0-0.152-0.087-0.152-0.152c0-0.108,0.087-0.152,0.304-0.152
			c0.628,0,1.821,0.043,1.93,0.043c0.086,0,1.323-0.043,1.908-0.043c0.217,0,0.303,0.043,0.303,0.152
			c0,0.065-0.086,0.152-0.152,0.152c-0.13,0-0.26,0-0.477,0.043c-0.52,0.109-0.628,0.369-0.672,1.02
			c-0.022,0.585-0.022,1.105-0.022,3.968V26.721z"/>
		<path fill="#FFFFFF" d="M188.262,31.816c-0.26-0.13-0.282-0.195-0.282-0.694c0-0.911,0.086-1.648,0.108-1.951
			c0-0.195,0.043-0.304,0.151-0.304c0.109,0,0.174,0.065,0.174,0.217s0,0.412,0.065,0.672c0.304,1.344,1.734,1.821,3.014,1.821
			c1.887,0,2.862-1.062,2.862-2.45c0-1.323-0.715-1.952-2.407-3.209l-0.867-0.65c-2.06-1.54-2.732-2.667-2.732-3.946
			c0-2.168,1.713-3.469,4.228-3.469c0.759,0,1.518,0.108,1.973,0.217c0.369,0.086,0.52,0.086,0.672,0.086s0.195,0.022,0.195,0.13
			c0,0.086-0.087,0.694-0.087,1.951c0,0.282-0.021,0.412-0.152,0.412c-0.13,0-0.151-0.086-0.173-0.238
			c-0.021-0.217-0.173-0.716-0.282-0.911c-0.13-0.217-0.759-0.911-2.472-0.911c-1.388,0-2.537,0.694-2.537,1.995
			c0,1.171,0.585,1.843,2.472,3.122l0.542,0.369c2.32,1.583,3.122,2.862,3.122,4.445c0,1.084-0.412,2.255-1.778,3.144
			c-0.802,0.52-1.995,0.65-3.036,0.65C190.148,32.315,189.043,32.185,188.262,31.816z"/>
		<path fill="#FFFFFF" d="M221.875,25.788c0,2.082,0,3.794,0.108,4.706c0.065,0.628,0.195,1.105,0.846,1.192
			c0.303,0.043,0.78,0.087,0.976,0.087c0.13,0,0.173,0.065,0.173,0.13c0,0.108-0.108,0.173-0.347,0.173
			c-1.193,0-2.559-0.065-2.667-0.065s-1.475,0.065-2.125,0.065c-0.239,0-0.347-0.043-0.347-0.173c0-0.065,0.043-0.13,0.174-0.13
			c0.195,0,0.455-0.043,0.65-0.087c0.434-0.087,0.542-0.564,0.629-1.192c0.108-0.911,0.108-2.624,0.108-4.706v-2.276
			c0-0.087-0.065-0.13-0.13-0.13h-9.193c-0.065,0-0.13,0.022-0.13,0.13v2.276c0,2.082,0,3.794,0.108,4.706
			c0.065,0.628,0.195,1.105,0.846,1.192c0.304,0.043,0.781,0.087,0.976,0.087c0.13,0,0.173,0.065,0.173,0.13
			c0,0.108-0.108,0.173-0.347,0.173c-1.192,0-2.559-0.065-2.667-0.065s-1.474,0.065-2.125,0.065c-0.239,0-0.347-0.043-0.347-0.173
			c0-0.065,0.043-0.13,0.173-0.13c0.195,0,0.456-0.043,0.65-0.087c0.434-0.087,0.542-0.564,0.629-1.192
			c0.108-0.911,0.108-2.624,0.108-4.706v-3.816c0-3.382,0-3.99-0.043-4.684c-0.043-0.737-0.217-1.084-0.933-1.236
			c-0.173-0.043-0.542-0.065-0.737-0.065c-0.086,0-0.173-0.043-0.173-0.13c0-0.13,0.108-0.173,0.347-0.173
			c0.976,0,2.342,0.065,2.45,0.065s1.475-0.065,2.125-0.065c0.239,0,0.347,0.043,0.347,0.173c0,0.087-0.087,0.13-0.174,0.13
			c-0.151,0-0.282,0.021-0.542,0.065c-0.585,0.108-0.759,0.477-0.802,1.236c-0.043,0.694-0.043,1.301-0.043,4.684v0.455
			c0,0.108,0.065,0.13,0.13,0.13h9.193c0.065,0,0.13-0.022,0.13-0.13v-0.455c0-3.382,0-3.99-0.043-4.684
			c-0.043-0.737-0.217-1.084-0.933-1.236c-0.173-0.043-0.542-0.065-0.737-0.065c-0.086,0-0.173-0.043-0.173-0.13
			c0-0.13,0.108-0.173,0.347-0.173c0.976,0,2.342,0.065,2.45,0.065s1.474-0.065,2.125-0.065c0.239,0,0.347,0.043,0.347,0.173
			c0,0.087-0.087,0.13-0.173,0.13c-0.152,0-0.282,0.021-0.542,0.065c-0.585,0.108-0.759,0.477-0.803,1.236
			c-0.043,0.694-0.043,1.301-0.043,4.684V25.788z"/>
		<path fill="#FFFFFF" d="M234.153,17.874c4.293,0,7.546,2.624,7.546,6.917c0,4.12-3.058,7.524-7.654,7.524
			c-5.226,0-7.459-3.925-7.459-7.242C226.586,22.102,228.884,17.874,234.153,17.874z M234.587,31.556c1.713,0,5.16-0.911,5.16-6.245
			c0-4.423-2.688-6.743-5.702-6.743c-3.188,0-5.486,1.995-5.486,6.006C228.559,28.867,231.14,31.556,234.587,31.556z"/>
		<path fill="#FFFFFF" d="M247.428,26.764c0,2.71,0.043,3.816,0.39,4.141c0.304,0.304,1.041,0.434,2.537,0.434
			c0.997,0,1.843-0.021,2.299-0.563c0.238-0.282,0.39-0.672,0.455-1.041c0.021-0.13,0.087-0.238,0.195-0.238
			c0.087,0,0.13,0.086,0.13,0.282s-0.13,1.301-0.282,1.843c-0.13,0.434-0.194,0.499-1.214,0.499c-1.366,0-2.429-0.021-3.317-0.065
			c-0.867-0.022-1.518-0.043-2.082-0.043c-0.086,0-0.411,0-0.78,0.021c-0.391,0.022-0.802,0.043-1.105,0.043
			c-0.195,0-0.304-0.043-0.304-0.152c0-0.065,0.043-0.151,0.151-0.151c0.174,0,0.412-0.043,0.586-0.087
			c0.368-0.087,0.412-0.434,0.498-0.976c0.108-0.759,0.108-2.212,0.108-3.99v-3.252c0-2.862,0-3.382-0.043-3.968
			c-0.043-0.629-0.151-0.933-0.78-1.02c-0.152-0.021-0.478-0.043-0.65-0.043c-0.065,0-0.152-0.087-0.152-0.152
			c0-0.108,0.087-0.152,0.304-0.152c0.867,0,2.06,0.043,2.168,0.043c0.087,0,1.519-0.043,2.104-0.043
			c0.195,0,0.304,0.043,0.304,0.152c0,0.065-0.087,0.13-0.151,0.13c-0.131,0-0.412,0.022-0.629,0.043
			c-0.564,0.108-0.673,0.39-0.716,1.041c-0.021,0.585-0.021,1.105-0.021,3.968V26.764z"/>
		<path fill="#FFFFFF" d="M259.031,26.721c0,1.778,0,3.23,0.087,3.99c0.064,0.542,0.13,0.889,0.693,0.976
			c0.282,0.043,0.694,0.087,0.867,0.087c0.108,0,0.152,0.086,0.152,0.151c0,0.087-0.087,0.152-0.304,0.152
			c-1.062,0-2.299-0.065-2.386-0.065c-0.108,0-1.301,0.065-1.886,0.065c-0.195,0-0.304-0.043-0.304-0.152
			c0-0.065,0.043-0.151,0.151-0.151c0.174,0,0.412-0.043,0.586-0.087c0.368-0.087,0.434-0.434,0.498-0.976
			c0.087-0.759,0.108-2.212,0.108-3.99v-3.252c0-2.862,0-3.382-0.043-3.968c-0.043-0.629-0.195-0.911-0.607-0.998
			c-0.217-0.043-0.455-0.065-0.585-0.065c-0.087,0-0.152-0.087-0.152-0.152c0-0.108,0.087-0.152,0.304-0.152
			c0.629,0,1.821,0.043,1.93,0.043c0.087,0,1.323-0.043,1.908-0.043c0.217,0,0.304,0.043,0.304,0.152
			c0,0.065-0.087,0.152-0.151,0.152c-0.131,0-0.261,0-0.478,0.043c-0.521,0.109-0.629,0.369-0.672,1.02
			c-0.021,0.585-0.021,1.105-0.021,3.968V26.721z"/>
		<path fill="#FFFFFF" d="M266.102,29.561c0.043,1.518,0.217,1.973,0.737,2.104c0.347,0.086,0.78,0.108,0.954,0.108
			c0.087,0,0.151,0.065,0.151,0.151c0,0.108-0.13,0.152-0.347,0.152c-1.084,0-1.843-0.065-2.017-0.065
			c-0.173,0-0.976,0.065-1.843,0.065c-0.195,0-0.304-0.021-0.304-0.152c0-0.086,0.065-0.151,0.151-0.151
			c0.152,0,0.499-0.022,0.781-0.108c0.477-0.13,0.542-0.629,0.542-2.299V18.807c0-0.737,0.108-0.933,0.26-0.933
			c0.217,0,0.542,0.369,0.737,0.564c0.304,0.303,3.079,3.252,6.028,6.288c1.886,1.951,3.924,4.141,4.51,4.748l-0.195-9.237
			c-0.021-1.192-0.13-1.604-0.716-1.713c-0.347-0.065-0.78-0.086-0.932-0.086c-0.131,0-0.152-0.108-0.152-0.174
			c0-0.108,0.152-0.13,0.369-0.13c0.867,0,1.777,0.043,1.994,0.043s0.846-0.043,1.627-0.043c0.194,0,0.347,0.021,0.347,0.13
			c0,0.065-0.087,0.174-0.217,0.174c-0.087,0-0.238,0-0.455,0.043c-0.629,0.13-0.673,0.499-0.673,1.605l-0.043,10.798
			c0,1.214-0.021,1.323-0.152,1.323c-0.194,0-0.39-0.152-1.452-1.127c-0.195-0.174-2.949-2.884-4.966-4.987
			c-2.211-2.32-4.358-4.575-4.943-5.226L266.102,29.561z"/>
		<path fill="#FFFFFF" d="M282.933,23.468c0-2.862,0-3.382-0.043-3.968c-0.043-0.629-0.151-0.933-0.78-1.02
			c-0.152-0.021-0.478-0.043-0.65-0.043c-0.065,0-0.152-0.087-0.152-0.152c0-0.108,0.087-0.152,0.304-0.152
			c0.867,0,2.104,0.043,2.212,0.043c0.13,0,4.119,0.021,4.553,0c0.369-0.022,0.716-0.087,0.868-0.108
			c0.086-0.022,0.173-0.087,0.26-0.087c0.065,0,0.087,0.087,0.087,0.173c0,0.13-0.108,0.347-0.152,0.868
			c-0.021,0.173-0.064,0.997-0.108,1.214c-0.021,0.087-0.086,0.195-0.173,0.195c-0.108,0-0.152-0.087-0.152-0.238
			c0-0.13-0.021-0.434-0.108-0.651c-0.13-0.303-0.325-0.434-1.365-0.563c-0.325-0.043-2.537-0.065-2.754-0.065
			c-0.087,0-0.108,0.065-0.108,0.195v5.009c0,0.13,0,0.195,0.108,0.195c0.238,0,2.754,0,3.188-0.043
			c0.455-0.043,0.737-0.065,0.932-0.26c0.131-0.13,0.217-0.238,0.282-0.238s0.108,0.043,0.108,0.151s-0.108,0.412-0.151,1.02
			c-0.044,0.368-0.087,1.062-0.087,1.192c0,0.152-0.044,0.347-0.174,0.347c-0.087,0-0.13-0.065-0.13-0.173
			c0-0.173,0-0.369-0.087-0.607c-0.065-0.26-0.238-0.477-0.976-0.564c-0.521-0.065-2.559-0.086-2.884-0.086
			c-0.108,0-0.13,0.065-0.13,0.13v1.54c0,0.629-0.021,2.775,0,3.144c0.043,1.236,0.39,1.474,2.276,1.474
			c0.499,0,1.409,0,1.908-0.195c0.499-0.217,0.759-0.542,0.867-1.279c0.043-0.217,0.087-0.282,0.195-0.282s0.13,0.152,0.13,0.282
			c0,0.13-0.151,1.388-0.26,1.778c-0.131,0.477-0.325,0.477-1.062,0.477c-1.432,0-2.537-0.043-3.317-0.065
			c-0.803-0.043-1.302-0.043-1.583-0.043c-0.044,0-0.412,0-0.824,0.021c-0.368,0.022-0.802,0.043-1.105,0.043
			c-0.195,0-0.304-0.043-0.304-0.152c0-0.065,0.043-0.151,0.151-0.151c0.174,0,0.412-0.065,0.586-0.087
			c0.368-0.065,0.412-0.434,0.498-0.976c0.108-0.759,0.108-2.212,0.108-3.99V23.468z"/>
		<path fill="#FFFFFF" d="M293.278,31.816c-0.26-0.13-0.281-0.195-0.281-0.694c0-0.911,0.087-1.648,0.108-1.951
			c0-0.195,0.043-0.304,0.151-0.304s0.174,0.065,0.174,0.217s0,0.412,0.064,0.672c0.304,1.344,1.735,1.821,3.015,1.821
			c1.886,0,2.862-1.062,2.862-2.45c0-1.323-0.716-1.952-2.407-3.209l-0.867-0.65c-2.06-1.54-2.732-2.667-2.732-3.946
			c0-2.168,1.713-3.469,4.229-3.469c0.759,0,1.518,0.108,1.973,0.217c0.369,0.086,0.521,0.086,0.673,0.086
			c0.151,0,0.194,0.022,0.194,0.13c0,0.086-0.086,0.694-0.086,1.951c0,0.282-0.022,0.412-0.152,0.412s-0.151-0.086-0.173-0.238
			c-0.022-0.217-0.174-0.716-0.282-0.911c-0.13-0.217-0.759-0.911-2.472-0.911c-1.388,0-2.537,0.694-2.537,1.995
			c0,1.171,0.586,1.843,2.472,3.122l0.542,0.369c2.32,1.583,3.123,2.862,3.123,4.445c0,1.084-0.412,2.255-1.778,3.144
			c-0.803,0.52-1.995,0.65-3.036,0.65C295.165,32.315,294.06,32.185,293.278,31.816z"/>
		<path fill="#FFFFFF" d="M304.643,31.816c-0.26-0.13-0.281-0.195-0.281-0.694c0-0.911,0.087-1.648,0.108-1.951
			c0-0.195,0.043-0.304,0.151-0.304s0.174,0.065,0.174,0.217s0,0.412,0.064,0.672c0.304,1.344,1.735,1.821,3.015,1.821
			c1.886,0,2.862-1.062,2.862-2.45c0-1.323-0.716-1.952-2.407-3.209l-0.867-0.65c-2.06-1.54-2.732-2.667-2.732-3.946
			c0-2.168,1.713-3.469,4.229-3.469c0.759,0,1.518,0.108,1.973,0.217c0.369,0.086,0.521,0.086,0.673,0.086
			c0.151,0,0.194,0.022,0.194,0.13c0,0.086-0.086,0.694-0.086,1.951c0,0.282-0.022,0.412-0.152,0.412s-0.151-0.086-0.173-0.238
			c-0.022-0.217-0.174-0.716-0.282-0.911c-0.13-0.217-0.759-0.911-2.472-0.911c-1.388,0-2.537,0.694-2.537,1.995
			c0,1.171,0.586,1.843,2.472,3.122l0.542,0.369c2.32,1.583,3.123,2.862,3.123,4.445c0,1.084-0.412,2.255-1.778,3.144
			c-0.803,0.52-1.995,0.65-3.036,0.65C306.529,32.315,305.424,32.185,304.643,31.816z"/>
	</g>
	<g>
		<path fill="#FFFFFF" d="M197.174,70.194c4.293,0,7.545,2.623,7.545,6.916c0,4.12-3.057,7.524-7.654,7.524
			c-5.226,0-7.459-3.925-7.459-7.242C189.607,74.422,191.905,70.194,197.174,70.194z M197.608,83.876
			c1.713,0,5.161-0.911,5.161-6.245c0-4.423-2.688-6.743-5.703-6.743c-3.188,0-5.486,1.995-5.486,6.006
			C191.58,81.188,194.161,83.876,197.608,83.876z"/>
		<path fill="#FFFFFF" d="M208.714,75.788c0-2.862,0-3.383-0.043-3.968c-0.043-0.629-0.152-0.933-0.78-1.02
			c-0.152-0.021-0.477-0.043-0.651-0.043c-0.065,0-0.152-0.087-0.152-0.152c0-0.108,0.087-0.151,0.304-0.151
			c0.867,0,2.06,0.043,2.168,0.043c0.369,0,4.51,0.022,4.943,0c0.369-0.021,0.694-0.021,0.868-0.086
			c0.108-0.022,0.195-0.108,0.26-0.108c0.086,0,0.13,0.086,0.13,0.173c0,0.13-0.087,0.347-0.152,0.867
			c-0.021,0.174-0.043,0.998-0.086,1.215c-0.022,0.087-0.087,0.195-0.174,0.195c-0.086,0-0.152-0.087-0.152-0.217
			c0-0.152-0.065-0.456-0.173-0.694s-0.563-0.542-1.301-0.542l-3.123-0.043c-0.108,0-0.152,0.043-0.152,0.194v5.03
			c0,0.108,0,0.174,0.13,0.174l2.602-0.021c0.325,0,0.607,0,0.867-0.021c0.455-0.044,0.715-0.108,0.889-0.325
			c0.086-0.108,0.173-0.195,0.238-0.195c0.087,0,0.108,0.064,0.108,0.151c0,0.108-0.13,0.412-0.173,1.02
			c-0.043,0.368-0.065,1.105-0.065,1.235c0,0.174-0.043,0.369-0.174,0.369c-0.108,0-0.13-0.087-0.13-0.174
			c-0.021-0.195-0.043-0.455-0.13-0.672c-0.086-0.261-0.39-0.499-0.976-0.586c-0.477-0.064-2.732-0.043-3.057-0.043
			c-0.108,0-0.13,0.043-0.13,0.174v1.474c0,1.822,0,3.274,0.087,3.99c0.065,0.542,0.173,0.889,0.694,0.976
			c0.282,0.043,0.694,0.087,0.867,0.087c0.108,0,0.152,0.087,0.152,0.151c0,0.087-0.086,0.152-0.303,0.152
			c-1.062,0-2.299-0.065-2.385-0.065c-0.108,0-1.301,0.065-1.887,0.065c-0.195,0-0.303-0.044-0.303-0.152
			c0-0.064,0.043-0.151,0.152-0.151c0.173,0,0.412-0.065,0.585-0.087c0.368-0.065,0.412-0.434,0.499-0.976
			c0.108-0.759,0.108-2.212,0.108-3.99V75.788z"/>
		<path fill="#FFFFFF" d="M231.529,79.04c0,1.778,0,3.231,0.087,3.99c0.064,0.542,0.151,0.889,0.737,0.976
			c0.26,0.043,0.693,0.087,0.867,0.087c0.13,0,0.151,0.087,0.151,0.151c0,0.087-0.087,0.152-0.304,0.152
			c-1.04,0-2.255-0.065-2.363-0.065c-0.087,0-1.409,0.065-1.973,0.065c-0.217,0-0.304-0.044-0.304-0.152
			c0-0.064,0.043-0.13,0.152-0.13c0.173,0,0.39-0.043,0.563-0.087c0.391-0.087,0.499-0.455,0.564-0.997
			c0.086-0.759,0.086-2.212,0.086-3.99V71.3l-2.753,0.043c-1.192,0.022-1.648,0.152-1.93,0.586
			c-0.217,0.325-0.239,0.455-0.304,0.585c-0.043,0.152-0.108,0.174-0.195,0.174c-0.043,0-0.13-0.043-0.13-0.151
			c0-0.195,0.369-1.844,0.412-1.995c0.021-0.108,0.13-0.347,0.195-0.347c0.13,0,0.325,0.151,0.846,0.217
			c0.542,0.064,1.279,0.086,1.496,0.086h7.199c0.629,0,1.062-0.043,1.366-0.086c0.281-0.044,0.455-0.087,0.542-0.087
			s0.087,0.108,0.087,0.217c0,0.563-0.065,1.886-0.065,2.104c0,0.151-0.087,0.238-0.174,0.238c-0.086,0-0.13-0.065-0.151-0.325
			l-0.021-0.195c-0.065-0.563-0.478-0.976-2.299-1.02l-2.385-0.043V79.04z"/>
		<path fill="#FFFFFF" d="M242.331,79.04c0,1.778,0,3.231,0.087,3.99c0.064,0.542,0.13,0.889,0.693,0.976
			c0.282,0.043,0.694,0.087,0.867,0.087c0.108,0,0.152,0.087,0.152,0.151c0,0.087-0.087,0.152-0.304,0.152
			c-1.062,0-2.299-0.065-2.386-0.065c-0.108,0-1.301,0.065-1.886,0.065c-0.195,0-0.304-0.044-0.304-0.152
			c0-0.064,0.043-0.151,0.151-0.151c0.174,0,0.412-0.044,0.586-0.087c0.368-0.087,0.434-0.434,0.498-0.976
			c0.087-0.759,0.108-2.212,0.108-3.99v-3.252c0-2.862,0-3.383-0.043-3.968c-0.043-0.629-0.195-0.911-0.607-0.998
			c-0.217-0.043-0.455-0.064-0.585-0.064c-0.087,0-0.152-0.087-0.152-0.152c0-0.108,0.087-0.151,0.304-0.151
			c0.629,0,1.821,0.043,1.93,0.043c0.087,0,1.323-0.043,1.908-0.043c0.217,0,0.304,0.043,0.304,0.151
			c0,0.065-0.087,0.152-0.151,0.152c-0.131,0-0.261,0-0.478,0.043c-0.521,0.108-0.629,0.369-0.672,1.02
			c-0.021,0.585-0.021,1.105-0.021,3.968V79.04z"/>
		<path fill="#FFFFFF" d="M248.599,75.788c0-2.862,0-3.383-0.043-3.968c-0.043-0.629-0.151-0.976-0.78-1.062
			c-0.152-0.021-0.478-0.044-0.65-0.044c-0.065,0-0.152-0.043-0.152-0.108c0-0.108,0.087-0.151,0.304-0.151
			c0.867,0,2.104,0.043,2.212,0.043c0.455,0,1.344-0.043,2.233-0.043c3.188,0,4.011,1.843,4.011,2.818
			c0,1.453-0.954,2.364-1.93,3.231c1.453,0.434,3.361,1.756,3.361,3.838c0,2.06-1.54,4.098-4.792,4.098
			c-0.347,0-1.041-0.021-1.648-0.065c-0.606-0.021-1.148-0.043-1.235-0.043c-0.044,0-0.391,0.021-0.781,0.021
			c-0.39,0.021-0.845,0.044-1.148,0.044c-0.195,0-0.304-0.044-0.304-0.152c0-0.064,0.043-0.108,0.151-0.108
			c0.174,0,0.412-0.064,0.586-0.087c0.368-0.064,0.412-0.477,0.498-1.019c0.108-0.759,0.108-2.212,0.108-3.99V75.788z
			 M250.247,76.179c0,0.13,0.043,0.173,0.13,0.194c0.108,0.022,0.455,0.087,1.171,0.087c1.062,0,1.475-0.043,1.865-0.477
			c0.411-0.455,0.736-1.084,0.736-1.974c0-1.409-0.78-2.971-2.688-2.971c-0.217,0-0.672,0.022-0.976,0.087
			c-0.173,0.044-0.238,0.087-0.238,0.195V76.179z M250.247,78.217c0,1.431,0,3.643,0.021,3.924c0.065,0.89,0.065,1.106,0.65,1.388
			c0.521,0.239,1.323,0.261,1.67,0.261c1.258,0,2.797-0.478,2.797-2.841c0-0.823-0.325-2.406-1.821-3.36
			c-0.65-0.412-1.258-0.391-1.713-0.478c-0.238-0.043-1.192-0.043-1.496-0.043c-0.065,0-0.108,0.043-0.108,0.13V78.217z"/>
		<path fill="#FFFFFF" d="M261.266,75.788c0-2.862,0-3.383-0.043-3.968c-0.043-0.629-0.151-0.933-0.78-1.02
			c-0.152-0.021-0.478-0.043-0.65-0.043c-0.065,0-0.152-0.087-0.152-0.152c0-0.108,0.087-0.151,0.304-0.151
			c0.867,0,2.104,0.043,2.212,0.043c0.13,0,4.119,0.022,4.553,0c0.369-0.021,0.716-0.086,0.868-0.108
			c0.086-0.021,0.173-0.086,0.26-0.086c0.065,0,0.087,0.086,0.087,0.173c0,0.13-0.108,0.347-0.152,0.867
			c-0.021,0.174-0.064,0.998-0.108,1.215c-0.021,0.087-0.086,0.195-0.173,0.195c-0.108,0-0.152-0.087-0.152-0.239
			c0-0.13-0.021-0.434-0.108-0.65c-0.13-0.304-0.325-0.434-1.365-0.563c-0.326-0.043-2.537-0.065-2.754-0.065
			c-0.087,0-0.108,0.065-0.108,0.195v5.009c0,0.13,0,0.195,0.108,0.195c0.238,0,2.754,0,3.188-0.044
			c0.455-0.043,0.737-0.064,0.932-0.26c0.131-0.13,0.217-0.238,0.282-0.238s0.108,0.043,0.108,0.151s-0.108,0.412-0.151,1.02
			c-0.044,0.368-0.087,1.062-0.087,1.192c0,0.151-0.044,0.347-0.174,0.347c-0.087,0-0.13-0.064-0.13-0.173
			c0-0.174,0-0.369-0.087-0.607c-0.064-0.261-0.238-0.478-0.976-0.563c-0.521-0.065-2.559-0.087-2.884-0.087
			c-0.108,0-0.13,0.064-0.13,0.13v1.539c0,0.629-0.021,2.775,0,3.145c0.043,1.235,0.39,1.475,2.276,1.475
			c0.499,0,1.409,0,1.908-0.195c0.499-0.217,0.759-0.542,0.867-1.279c0.043-0.217,0.087-0.282,0.195-0.282s0.13,0.152,0.13,0.282
			s-0.151,1.388-0.26,1.778c-0.131,0.477-0.325,0.477-1.062,0.477c-1.432,0-2.537-0.043-3.317-0.065
			c-0.803-0.043-1.302-0.043-1.583-0.043c-0.044,0-0.412,0-0.824,0.021c-0.368,0.021-0.802,0.044-1.105,0.044
			c-0.195,0-0.304-0.044-0.304-0.152c0-0.064,0.043-0.151,0.151-0.151c0.174,0,0.412-0.065,0.586-0.087
			c0.368-0.065,0.412-0.434,0.498-0.976c0.108-0.759,0.108-2.212,0.108-3.99V75.788z"/>
		<path fill="#FFFFFF" d="M277.379,79.04c0,1.778,0,3.231,0.087,3.99c0.065,0.542,0.152,0.889,0.737,0.976
			c0.261,0.043,0.694,0.087,0.867,0.087c0.131,0,0.152,0.087,0.152,0.151c0,0.087-0.087,0.152-0.304,0.152
			c-1.041,0-2.255-0.065-2.363-0.065c-0.087,0-1.409,0.065-1.974,0.065c-0.217,0-0.304-0.044-0.304-0.152
			c0-0.064,0.044-0.13,0.152-0.13c0.173,0,0.391-0.043,0.563-0.087c0.391-0.087,0.499-0.455,0.563-0.997
			c0.087-0.759,0.087-2.212,0.087-3.99V71.3l-2.754,0.043c-1.192,0.022-1.647,0.152-1.93,0.586
			c-0.217,0.325-0.238,0.455-0.303,0.585c-0.044,0.152-0.109,0.174-0.195,0.174c-0.044,0-0.131-0.043-0.131-0.151
			c0-0.195,0.369-1.844,0.412-1.995c0.022-0.108,0.131-0.347,0.195-0.347c0.13,0,0.325,0.151,0.846,0.217
			c0.542,0.064,1.279,0.086,1.496,0.086h7.199c0.628,0,1.062-0.043,1.365-0.086c0.282-0.044,0.456-0.087,0.542-0.087
			c0.087,0,0.087,0.108,0.087,0.217c0,0.563-0.064,1.886-0.064,2.104c0,0.151-0.087,0.238-0.174,0.238s-0.13-0.065-0.151-0.325
			l-0.022-0.195c-0.064-0.563-0.477-0.976-2.298-1.02l-2.386-0.043V79.04z"/>
	</g>
</g>
</svg>
